<svg viewBox="0 0 100 100" xmlns="http://www.w3.org/2000/svg">
  <defs>
    <linearGradient id="grad1" x1="0%" y1="0%" x2="100%" y2="100%">
      <stop offset="0%" style="stop-color:#3b82f6"/>
      <stop offset="100%" style="stop-color:#8b5cf6"/>
    </linearGradient>
  </defs>
  <circle cx="50" cy="50" r="45" fill="url(#grad1)" opacity="0.2"/>
  <circle cx="50" cy="50" r="8" fill="url(#grad1)"/>
  <circle cx="50" cy="20" r="6" fill="url(#grad1)"/>
  <circle cx="80" cy="50" r="6" fill="url(#grad1)"/>
  <circle cx="50" cy="80" r="6" fill="url(#grad1)"/>
  <circle cx="20" cy="50" r="6" fill="url(#grad1)"/>
  <circle cx="75" cy="25" r="5" fill="url(#grad1)" opacity="0.7"/>
  <circle cx="75" cy="75" r="5" fill="url(#grad1)" opacity="0.7"/>
  <circle cx="25" cy="75" r="5" fill="url(#grad1)" opacity="0.7"/>
  <circle cx="25" cy="25" r="5" fill="url(#grad1)" opacity="0.7"/>
  <line x1="50" y1="50" x2="50" y2="20" stroke="url(#grad1)" stroke-width="2"/>
  <line x1="50" y1="50" x2="80" y2="50" stroke="url(#grad1)" stroke-width="2"/>
  <line x1="50" y1="50" x2="50" y2="80" stroke="url(#grad1)" stroke-width="2"/>
  <line x1="50" y1="50" x2="20" y2="50" stroke="url(#grad1)" stroke-width="2"/>
  <line x1="50" y1="50" x2="75" y2="25" stroke="url(#grad1)" stroke-width="1.5" opacity="0.7"/>
  <line x1="50" y1="50" x2="75" y2="75" stroke="url(#grad1)" stroke-width="1.5" opacity="0.7"/>
  <line x1="50" y1="50" x2="25" y2="75" stroke="url(#grad1)" stroke-width="1.5" opacity="0.7"/>
  <line x1="50" y1="50" x2="25" y2="25" stroke="url(#grad1)" stroke-width="1.5" opacity="0.7"/>
</svg>
